name Walk4.mot
datacolumns 19
datarows 10
range 0.63100000 0.64000000
endheader

                time	   L_ground_force_vx	   L_ground_force_vy	   L_ground_force_vz	   L_ground_force_px	   L_ground_force_py	   L_ground_force_pz	   R_ground_force_vx	   R_ground_force_vy	   R_ground_force_vz	   R_ground_force_px	   R_ground_force_py	   R_ground_force_pz	   L_ground_torque_x	   L_ground_torque_y	   L_ground_torque_z	   R_ground_torque_x	   R_ground_torque_y	   R_ground_torque_z	
          0.63100000	          0.00000000	          0.00000000	          0.00000000	          0.00000000	          0.00000000	          0.00000000	          0.00000000	          0.00000000	          0.00000000	          0.00000000	          0.00000000	          0.00000000	          0.00000000	          0.00000000	          0.00000000	          0.00000000	          0.00000000	          0.00000000	
          0.63200000	          0.00000000	          0.00000000	          0.00000000	          0.00000000	          0.00000000	          0.00000000	          0.00000000	          0.00000000	          0.00000000	          0.00000000	          0.00000000	          0.00000000	          0.00000000	          0.00000000	          0.00000000	          0.00000000	          0.00000000	          0.00000000	
          0.63300000	          0.36241811	          9.08839032	          1.12640279	         -0.46277040	          0.00000000	         -0.01551773	          0.00000000	          0.00000000	          0.00000000	          0.00000000	          0.00000000	          0.00000000	          0.00000000	          0.01848553	          0.00000000	          0.00000000	          0.00000000	          0.00000000	
          0.63400000	          0.80194001	         19.52486448	          2.15419593	         -0.46940218	          0.00000000	         -0.02391885	          0.00000000	          0.00000000	          0.00000000	          0.00000000	          0.00000000	          0.00000000	          0.00000000	          0.01449654	          0.00000000	          0.00000000	          0.00000000	          0.00000000	
          0.63500000	          1.48585458	         35.07295647	          3.54779373	         -0.47391226	          0.00000000	         -0.02962692	          0.00000000	          0.00000000	          0.00000000	          0.00000000	          0.00000000	          0.00000000	          0.00000000	         -0.00258164	          0.00000000	          0.00000000	          0.00000000	          0.00000000	
          0.63600000	          2.51440320	         56.59334766	          5.38124936	         -0.47689596	          0.00000000	         -0.03365633	          0.00000000	          0.00000000	          0.00000000	          0.00000000	          0.00000000	          0.00000000	          0.00000000	         -0.02994465	          0.00000000	          0.00000000	          0.00000000	          0.00000000	
          0.63700000	          4.00488927	         84.34251487	          7.71070716	         -0.47855949	          0.00000000	         -0.03617533	          0.00000000	          0.00000000	          0.00000000	          0.00000000	          0.00000000	          0.00000000	          0.00000000	         -0.06198621	          0.00000000	          0.00000000	          0.00000000	          0.00000000	
          0.63800000	          6.01997385	        117.30667812	         10.47521635	         -0.47923283	          0.00000000	         -0.03735628	          0.00000000	          0.00000000	          0.00000000	          0.00000000	          0.00000000	          0.00000000	          0.00000000	         -0.09556982	          0.00000000	          0.00000000	          0.00000000	          0.00000000	
          0.63900000	          8.46838246	        152.83738603	         13.42496974	         -0.47933290	          0.00000000	         -0.03757863	          0.00000000	          0.00000000	          0.00000000	          0.00000000	          0.00000000	          0.00000000	          0.00000000	         -0.12918594	          0.00000000	          0.00000000	          0.00000000	          0.00000000	
          0.64000000	         11.08125916	        187.18386499	         16.16977260	         -0.47920598	          0.00000000	         -0.03729930	          0.00000000	          0.00000000	          0.00000000	          0.00000000	          0.00000000	          0.00000000	          0.00000000	         -0.15677750	          0.00000000	          0.00000000	          0.00000000	          0.00000000	
